#!OML:ASF F:\VICON\USERDATA\INSTALL\rory3\rory3.ASF
:FULLY-SPECIFIED
:DEGREES
499
root -3.54771 15.4802 23.0293 569.674 -13.695 183.69
lowerback 2.06494 4.25306 -5.60054
upperback -7.53265 4.00244 -7.461
thorax -9.05367 1.7029 -5.20001
lowerneck -21.4984 11.646 2.28409
upperneck 8.98653 16.5094 -10.6869
head 7.33799 6.94216 -1.70329
rclavicle -1.90833e-014 -1.11319e-014
rhumerus 128.777 -29.9222 238.549
rradius 11.0232
rwrist 78.1106
rhand -14.2618 6.60018
rfingers 7.12502
rthumb 11.8766 -23.043
lclavicle -1.90833e-014 -1.11319e-014
lhumerus 0.854808 50.7125 1.59396
lradius 21.4218
lwrist -30.7927
lhand -3.50855 29.318
lfingers 7.12502
lthumb 22.2258 58.0601
rfemur 1.38788 9.8636 32.4196
rtibia 3.18055e-015
rfoot -43.752 -47.5018
rtoes 0.143661
lfemur -86.0856 22.7064 -46.2279
ltibia 54.6221
lfoot -26.5977 28.2321
ltoes 17.5103
500
root -3.5496 15.4795 23.0337 569.845 -13.6963 183.829
lowerback 1.74303 4.25296 -5.54624
upperback -7.48995 4.047 -7.45215
thorax -8.80841 1.72507 -5.19137
lowerneck -21.0526 11.6483 2.40197
upperneck 8.46403 16.4247 -10.7264
head 7.10217 6.95085 -1.7773
rclavicle 4.37326e-014 5.725e-014
rhumerus 129.072 -30.0684 238.674
rradius 10.742
rwrist 77.4736
rhand -14.3785 6.56781
rfingers 7.12502
rthumb 11.7642 -23.0818
lclavicle 4.37326e-014 5.725e-014
lhumerus 1.07593 50.6431 1.74077
lradius 21.5271
lwrist -30.3541
lhand -3.59819 29.4689
lfingers 7.12502
lthumb 22.1398 58.2212
rfemur 1.14374 9.98395 32.4973
rtibia -2.54444e-014
rfoot -43.353 -47.786
rtoes -0.240671
lfemur -86.4269 22.6921 -46.2308
ltibia 54.6793
lfoot -26.5421 28.2337
ltoes 17.2763
501
root -3.55054 15.4764 23.0341 569.92 -13.6858 183.833
lowerback 1.5241 4.17833 -5.7148
upperback -7.36151 3.99226 -7.33209
thorax -8.56025 1.72291 -4.93344
lowerneck -21.1555 11.6704 2.04682
upperneck 8.28308 16.4933 -10.5349
head 7.01516 6.99374 -1.65964
rclavicle -9.54166e-015 -3.49861e-014
rhumerus 128.764 -29.8968 238.955
rradius 10.931
rwrist 77.0983
rhand -14.5346 6.34975
rfingers 7.12502
rthumb 11.6136 -23.3084
lclavicle -9.54166e-015 -3.49861e-014
lhumerus 1.16039 51.4411 1.95999
lradius 21.5009
lwrist -30.8328
lhand -3.51243 29.4172
lfingers 7.12502
lthumb 22.2221 58.1597
rfemur 1.07516 10.0102 32.482
rtibia 3.18055e-014
rfoot -43.2246 -47.8754
rtoes -0.22272
lfemur -86.6424 22.7305 -46.4013
ltibia 54.747
lfoot -26.0935 28.2764
ltoes 16.921
502
root -3.54777 15.4732 23.0317 569.845 -13.6593 183.625
lowerback 1.5573 4.10357 -6.04152
upperback -7.1948 3.88901 -7.30706
thorax -8.42946 1.69761 -4.70691
lowerneck -21.3434 11.6927 1.71657
upperneck 8.20189 16.5734 -10.3749
head 6.98006 7.03109 -1.54749
rclavicle -1.03368e-014 -9.54166e-015
rhumerus 128.399 -29.7146 239.059
rradius 11.291
rwrist 77.0556
rhand -14.418 6.12767
rfingers 7.12502
rthumb 11.726 -23.5241
lclavicle -1.03368e-014 -9.54166e-015
lhumerus 1.25564 51.7109 2.03456
lradius 21.5484
lwrist -30.9058
lhand -3.32462 29.2995
lfingers 7.12502
lthumb 22.4024 58.0205
rfemur 1.23626 9.89615 32.3178
rtibia 3.18055e-015
rfoot -43.8042 -47.5627
rtoes 0.305685
lfemur -86.5678 22.7971 -46.669
ltibia 54.8086
lfoot -25.6925 28.3783
ltoes 16.4935
503
root -3.54471 15.4687 23.0324 569.724 -13.6763 183.56
lowerback 1.62971 4.1189 -6.15
upperback -7.05126 3.91217 -7.35172
thorax -8.3197 1.71742 -4.69219
lowerneck -21.1456 11.591 1.49991
upperneck 7.74007 16.4105 -10.2277
head 6.75585 6.99306 -1.51773
rclavicle -2.8625e-014 1.25632e-013
rhumerus 128.374 -29.9808 239.264
rradius 11.4527
rwrist 76.7373
rhand -14.3979 5.93107
rfingers 7.12502
rthumb 11.7454 -23.7196
lclavicle -2.8625e-014 1.25632e-013
lhumerus 1.77785 51.5432 2.45861
lradius 21.6516
lwrist -30.4586
lhand -3.4672 29.5218
lfingers 7.12502
lthumb 22.2655 58.2592
rfemur 1.40348 9.81314 32.3148
rtibia 2.8625e-014
rfoot -44.2789 -47.3401
rtoes 0.509411
lfemur -86.4744 22.8781 -46.695
ltibia 54.8997
lfoot -25.8215 27.8425
ltoes 18.2874
504
root -3.54099 15.4662 23.0425 569.613 -13.6996 183.703
lowerback 1.71909 4.12934 -6.1267
upperback -6.91906 3.95546 -7.2969
thorax -8.22556 1.74869 -4.64706
lowerneck -21.0925 11.4715 1.41267
upperneck 7.30986 16.2145 -10.2372
head 6.59046 6.91801 -1.55034
rclavicle -2.46493e-014 -4.77083e-014
rhumerus 128.42 -30.2144 239.747
rradius 11.5041
rwrist 75.8464
rhand -13.9686 5.88611
rfingers 7.12502
rthumb 12.1594 -23.7405
lclavicle -2.46493e-014 -4.77083e-014
lhumerus 2.27797 51.9494 2.9382
lradius 21.6434
lwrist -30.5651
lhand -3.58653 29.5509
lfingers 7.12502
lthumb 22.151 58.3019
rfemur 1.46187 9.84951 32.4911
rtibia -2.8625e-014
rfoot -44.2133 -47.343
rtoes 0.863258
lfemur -86.489 22.898 -46.4088
ltibia 55.0109
lfoot -25.9918 27.5695
ltoes 19.6679
505
root -3.53727 15.4643 23.0519 569.602 -13.5398 183.811
lowerback 1.7717 4.13928 -6.20155
upperback -6.84711 3.97927 -7.24581
thorax -8.18588 1.77177 -4.5522
lowerneck -21.1716 11.3771 1.19748
upperneck 6.96633 16.085 -10.1746
head 6.4611 6.8665 -1.52571
rclavicle 2.54444e-014 6.83819e-014
rhumerus 128.46 -30.146 239.987
rradius 11.583
rwrist 75.4224
rhand -13.8148 6.07011
rfingers 7.12502
rthumb 12.3077 -23.5477
lclavicle 2.54444e-014 6.83819e-014
lhumerus 2.4456 52.6833 3.12875
lradius 21.5841
lwrist -31.29
lhand -3.54248 29.2899
lfingers 7.12502
lthumb 22.1933 58.0359
rfemur 1.42451 10.0523 32.5247
rtibia -3.18055e-015
rfoot -44.0719 -47.3535
rtoes 0.970571
lfemur -86.6148 22.9231 -46.2425
ltibia 55.1064
lfoot -26.0896 27.7129
ltoes 20.131
506
root -3.53351 15.4608 23.0526 569.625 -13.3299 183.785
lowerback 1.77919 4.17853 -6.40088
upperback -6.80976 4.00815 -7.31435
thorax -8.1626 1.7918 -4.51708
lowerneck -20.979 11.324 1.14722
upperneck 6.47054 15.9492 -10.0797
head 6.24933 6.84139 -1.53096
rclavicle -4.29375e-014 1.06549e-013
rhumerus 128.295 -30.261 240.129
rradius 11.9037
rwrist 75.0627
rhand -13.8272 6.17009
rfingers 7.12502
rthumb 12.2958 -23.4484
lclavicle -4.29375e-014 1.06549e-013
lhumerus 2.53922 52.3905 3.077
lradius 21.6803
lwrist -31.0647
lhand -3.54257 29.1374
lfingers 7.12502
lthumb 22.1932 57.8834
rfemur 1.42612 10.2256 32.4156
rtibia 2.8625e-014
rfoot -43.8205 -47.4565
rtoes 0.915723
lfemur -86.7532 22.9989 -46.3435
ltibia 55.1999
lfoot -25.8865 28.0212
ltoes 19.7075
507
root -3.53754 15.4577 23.0512 569.541 -13.2509 183.816
lowerback 1.89248 4.28715 -6.35525
upperback -6.78571 4.13399 -7.44187
thorax -8.18757 1.84375 -4.69892
lowerneck -20.1409 11.2498 1.17729
upperneck 5.39896 15.7082 -10.1036
head 5.76562 6.81023 -1.64129
rclavicle -5.00937e-014 1.84472e-013
rhumerus 128.69 -30.2692 239.782
rradius 11.8036
rwrist 75.1509
rhand -13.8318 6.10051
rfingers 7.12502
rthumb 12.2913 -23.5183
lclavicle -5.00937e-014 1.84472e-013
lhumerus 3.21331 52.1678 3.54125
lradius 21.7741
lwrist -30.9502
lhand -3.28327 28.8209
lfingers 7.12502
lthumb 22.4421 57.537
rfemur 1.53924 10.2871 32.4044
rtibia 2.22639e-014
rfoot -43.8069 -47.3646
rtoes 1.10782
lfemur -86.7205 23.0388 -46.2543
ltibia 55.3146
lfoot -26.081 28.0382
ltoes 20.0985
508
root -3.54215 15.4513 23.0451 569.358 -13.333 183.858
lowerback 2.11626 4.37576 -6.22025
upperback -6.72698 4.23426 -7.57995
thorax -8.23027 1.87912 -4.94634
lowerneck -19.2458 11.1342 1.26284
upperneck 4.18482 15.391 -10.2068
head 5.23964 6.74063 -1.79762
rclavicle 3.26007e-014 8.5875e-014
rhumerus 129.32 -30.3112 239.325
rradius 11.45
rwrist 75.4682
rhand -13.9459 6.06511
rfingers 7.12502
rthumb 12.1813 -23.5602
lclavicle 3.26007e-014 8.5875e-014
lhumerus 4.06985 51.9487 4.06822
lradius 21.7886
lwrist -30.8255
lhand -3.10788 28.9844
lfingers 7.12502
lthumb 22.6104 57.6801
rfemur 1.78483 10.1819 32.5127
rtibia -4.77083e-014
rfoot -43.9367 -47.3033
rtoes 1.00224
lfemur -86.574 23.0677 -46.0944
ltibia 55.4779
lfoot -26.1046 28.0233
ltoes 20.2871
509
root -3.54348 15.4413 23.042 569.057 -13.5434 183.917
lowerback 2.15939 4.36675 -6.28287
upperback -6.38 4.30286 -7.42082
thorax -7.88653 1.94317 -4.72204
lowerneck -18.8778 11.0506 0.961434
upperneck 3.25764 15.2305 -10.3057
head 4.86884 6.69913 -1.84704
rclavicle 7.87187e-014 -2.38542e-014
rhumerus 129.598 -30.315 239.576
rradius 11.4091
rwrist 75.2787
rhand -14.2999 6.08865
rfingers 7.12502
rthumb 11.8399 -23.5566
lclavicle 7.87187e-014 -2.38542e-014
lhumerus 4.34759 52.0998 4.53557
lradius 21.8497
lwrist -30.6977
lhand -3.36096 29.3007
lfingers 7.12502
lthumb 22.3675 58.0259
rfemur 2.14414 9.94434 32.7303
rtibia -2.8625e-014
rfoot -44.1671 -47.1359
rtoes 0.952155
lfemur -86.3376 23.083 -45.8573
ltibia 55.6394
lfoot -25.9416 28.0227
ltoes 20.2111
510
root -3.54348 15.4352 23.0415 568.917 -13.6852 183.962
lowerback 2.2615 4.37994 -6.25637
upperback -6.20494 4.35049 -7.38732
thorax -7.75228 1.9751 -4.69982
lowerneck -18.447 10.967 0.686729
upperneck 2.4627 15.0603 -10.1559
head 4.51055 6.67228 -1.82637
rclavicle -4.29375e-014 -9.85972e-014
rhumerus 129.677 -30.5341 239.856
rradius 11.4054
rwrist 74.9449
rhand -14.8706 6.10401
rfingers 7.12502
rthumb 11.2896 -23.5722
lclavicle -4.29375e-014 -9.85972e-014
lhumerus 4.81792 52.305 5.04888
lradius 21.9128
lwrist -30.7667
lhand -3.58021 29.2453
lfingers 7.12502
lthumb 22.157 57.9956
rfemur 2.28832 9.80719 32.8614
rtibia 2.8625e-014
rfoot -44.1583 -47.1564
rtoes 0.987107
lfemur -86.3346 23.0997 -45.8046
ltibia 55.8003
lfoot -25.5172 28.2249
ltoes 19.3396
511
root -3.54833 15.4348 23.0401 568.903 -13.6631 183.841
lowerback 2.2147 4.31644 -6.46186
upperback -6.00464 4.28876 -7.341
thorax -7.52977 1.96216 -4.51132
lowerneck -18.1371 10.9553 0.269284
upperneck 1.61565 15.0054 -10.0044
head 4.15159 6.69423 -1.7694
rclavicle -3.4191e-014 1.20861e-013
rhumerus 129.648 -30.5399 240.26
rradius 11.4716
rwrist 74.3845
rhand -15.1024 6.08206
rfingers 7.12502
rthumb 11.066 -23.6062
lclavicle -3.4191e-014 1.20861e-013
lhumerus 4.83451 52.6835 5.13383
lradius 21.9604
lwrist -30.9683
lhand -3.44704 29.0812
lfingers 7.12502
lthumb 22.2849 57.8162
rfemur 2.32407 9.76172 32.7125
rtibia 1.27222e-014
rfoot -43.7481 -47.4772
rtoes 0.625153
lfemur -86.3204 23.1065 -45.9774
ltibia 55.9267
lfoot -25.3995 28.295
ltoes 19.066
512
root -3.55295 15.4305 23.0389 568.901 -13.6805 183.826
lowerback 2.14328 4.17103 -6.62541
upperback -5.79411 4.14038 -7.1874
thorax -7.28631 1.91091 -4.22117
lowerneck -17.923 11.0118 -0.321535
upperneck 0.595654 15.0443 -9.77878
head 3.73951 6.76614 -1.66001
rclavicle -8.42847e-014 5.725e-014
rhumerus 129.755 -29.6346 239.855
rradius 11.7541
rwrist 75.0648
rhand -15.1379 6.41403
rfingers 7.12502
rthumb 11.0317 -23.2761
lclavicle -8.42847e-014 5.725e-014
lhumerus 4.07656 52.097 4.51413
lradius 22.1434
lwrist -30.0808
lhand -3.60095 29.1559
lfingers 7.12502
lthumb 22.1371 57.9085
rfemur 2.3483 9.73393 32.698
rtibia 3.18055e-015
rfoot -43.6423 -47.629
rtoes 0.155312
lfemur -86.331 23.0273 -45.9525
ltibia 56.0604
lfoot -25.566 28.2535
ltoes 19.1235
